<svg width="3260" height="1356" viewBox="0 0 3260 1356" fill="none" xmlns="http://www.w3.org/2000/svg">
<path opacity="0.2" d="M1983.05 151.456C2512.61 117.171 3195.29 259.908 3260 309.122L3260 514.178L-240 514.177L-240 123.204C191.12 -197.595 1189.06 213.492 1613 178.797C1869.11 157.835 1856.35 159.658 1983.05 151.456Z" fill="url(#paint0_linear)"/>
<path opacity="0.2" d="M-240 1647L3260 1647L3260 309.122C2488.91 374.74 2260.13 -33.5499 1499.97 106.8C1089.23 182.636 149.193 -22.6138 -240 121.381L-240 1647Z" fill="url(#paint1_linear)"/>
<path d="M3260 1647L-240 1647L-240 119.558C350.625 402.08 720.677 -27.1709 1510 201.581C1911.17 317.844 2724.06 426.687 3260 310.033L3260 1647Z" fill="url(#paint2_linear)"/>
<path opacity="0.2" d="M1983.05 151.473C2512.61 117.184 3195.29 259.936 3260 309.155L3260 514.233L-240 514.233L-240 123.217C191.12 -197.616 1189.06 213.515 1613 178.816C1869.11 157.853 1856.35 159.676 1983.05 151.473Z" fill="url(#paint3_linear)"/>
<path opacity="0.2" d="M-240 1647.18L3260 1647.18L3260 309.155C2488.91 374.78 2260.13 -33.5532 1499.97 106.811C1089.23 182.656 149.193 -22.6159 -240 121.394L-240 1647.18Z" fill="url(#paint4_linear)"/>
<path d="M3260 1647.18L-240 1647.18L-240 119.571C350.625 402.123 720.677 -27.1734 1510 201.603C1911.17 317.878 2724.06 426.733 3260 310.066L3260 1647.18Z" fill="url(#paint5_linear)"/>
<path opacity="0.2" d="M1983.05 151.473C2512.61 117.184 3195.29 259.936 3260 309.155L3260 514.233L-240 514.233L-240 123.217C191.12 -197.616 1189.06 213.515 1613 178.816C1869.11 157.853 1856.35 159.676 1983.05 151.473Z" fill="url(#paint6_linear)"/>
<path opacity="0.2" d="M-240 1647.18L3260 1647.18L3260 309.155C2488.91 374.78 2260.13 -33.5532 1499.97 106.811C1089.23 182.656 149.193 -22.6159 -240 121.394L-240 1647.18Z" fill="url(#paint7_linear)"/>
<path d="M3260 1647.18L-240 1647.18L-240 119.571C350.625 402.123 720.677 -27.1734 1510 201.603C1911.17 317.878 2724.06 426.733 3260 310.066L3260 1647.18Z" fill="url(#paint8_linear)"/>
<path d="M211.517 1115.28C215.053 1115.28 217.92 1112.2 217.92 1108.4C217.92 1104.59 215.053 1101.51 211.517 1101.51C207.981 1101.51 205.114 1104.59 205.114 1108.4C205.114 1112.2 207.981 1115.28 211.517 1115.28Z" fill="white"/>
<path d="M364.294 798.83C367.83 798.83 370.697 795.747 370.697 791.945C370.697 788.143 367.83 785.06 364.294 785.06C360.757 785.06 357.891 788.143 357.891 791.945C357.891 795.747 360.757 798.83 364.294 798.83Z" fill="white"/>
<path d="M1097.7 903.887C1097.4 900.098 1094.31 897.283 1090.78 897.6C1087.26 897.917 1084.64 901.245 1084.94 905.034C1085.23 908.823 1088.33 911.638 1091.85 911.321C1095.38 911.004 1097.99 907.676 1097.7 903.887Z" fill="white"/>
<path d="M3051.38 663.553C3054.91 663.553 3057.78 660.471 3057.78 656.669C3057.78 652.866 3054.91 649.784 3051.38 649.784C3047.84 649.784 3044.98 652.866 3044.98 656.669C3044.98 660.471 3047.84 663.553 3051.38 663.553Z" fill="white"/>
<path d="M2956.7 904.441H2952.05V899.441H2950.16V904.441H2945.51V906.47H2950.16V911.471H2952.05V906.47H2956.7V904.441Z" fill="white"/>
<path d="M141.554 438.22H136.904V433.22H135.016V438.22H130.366V440.249H135.016V445.25H136.904V440.249H141.554V438.22Z" fill="white"/>
<path d="M148.138 702.396C150.422 702.396 152.272 700.406 152.272 697.951C152.272 695.496 150.422 693.506 148.138 693.506C145.855 693.506 144.004 695.496 144.004 697.951C144.004 700.406 145.855 702.396 148.138 702.396Z" fill="white"/>
<path d="M1760.02 631.49C1759.73 627.701 1756.63 624.886 1753.11 625.203C1749.58 625.519 1746.96 628.848 1747.26 632.637C1747.55 636.426 1750.65 639.24 1754.17 638.924C1757.7 638.607 1760.31 635.279 1760.02 631.49Z" fill="white"/>
<path d="M1217.37 1075.4C1217.08 1071.61 1213.98 1068.8 1210.46 1069.11C1206.93 1069.43 1204.32 1072.76 1204.61 1076.55C1204.9 1080.34 1208 1083.15 1211.52 1082.83C1215.05 1082.52 1217.67 1079.19 1217.37 1075.4Z" fill="white"/>
<path d="M1453.99 494.164C1453.7 490.375 1450.6 487.56 1447.08 487.877C1443.56 488.194 1440.94 491.522 1441.23 495.311C1441.53 499.1 1444.62 501.915 1448.15 501.598C1451.67 501.281 1454.29 497.953 1453.99 494.164Z" fill="white"/>
<path d="M1138.33 762.867L1138.71 767.85L1134.08 768.266L1134.24 770.289L1138.87 769.872L1139.26 774.855L1141.14 774.686L1140.75 769.703L1145.39 769.286L1145.23 767.264L1140.59 767.681L1140.21 762.698L1138.33 762.867Z" fill="white"/>
<path d="M1382.63 733.8C1382.44 731.354 1380.44 729.537 1378.16 729.742C1375.89 729.946 1374.2 732.095 1374.39 734.541C1374.58 736.988 1376.58 738.805 1378.85 738.6C1381.13 738.396 1382.82 736.247 1382.63 733.8Z" fill="white"/>
<defs>
<linearGradient id="paint0_linear" x1="3182.53" y1="655.437" x2="196.635" y2="-153.101" gradientUnits="userSpaceOnUse">
<stop stop-color="#63CDD1"/>
<stop offset="1" stop-color="#0C1154"/>
</linearGradient>
<linearGradient id="paint1_linear" x1="3109.61" y1="267.199" x2="633.375" y2="2184.04" gradientUnits="userSpaceOnUse">
<stop stop-color="#63CDD1"/>
<stop offset="1" stop-color="#0C1154"/>
</linearGradient>
<linearGradient id="paint2_linear" x1="3258.18" y1="1774.59" x2="-129.508" y2="-365.611" gradientUnits="userSpaceOnUse">
<stop stop-color="#63CDD1"/>
<stop offset="1" stop-color="#0C1154"/>
</linearGradient>
<linearGradient id="paint3_linear" x1="3182.53" y1="655.507" x2="196.591" y2="-152.956" gradientUnits="userSpaceOnUse">
<stop stop-color="#63CDD1"/>
<stop offset="1" stop-color="#0C1154"/>
</linearGradient>
<linearGradient id="paint4_linear" x1="3109.61" y1="267.228" x2="633.177" y2="2184.02" gradientUnits="userSpaceOnUse">
<stop stop-color="#63CDD1"/>
<stop offset="1" stop-color="#0C1154"/>
</linearGradient>
<linearGradient id="paint5_linear" x1="3258.18" y1="1774.78" x2="-129.714" y2="-365.323" gradientUnits="userSpaceOnUse">
<stop stop-color="#63CDD1"/>
<stop offset="1" stop-color="#0C1154"/>
</linearGradient>
<linearGradient id="paint6_linear" x1="3182.53" y1="655.507" x2="196.591" y2="-152.956" gradientUnits="userSpaceOnUse">
<stop stop-color="#63CDD1"/>
<stop offset="1" stop-color="#0C1154"/>
</linearGradient>
<linearGradient id="paint7_linear" x1="3109.61" y1="267.228" x2="633.177" y2="2184.02" gradientUnits="userSpaceOnUse">
<stop stop-color="#63CDD1"/>
<stop offset="1" stop-color="#0C1154"/>
</linearGradient>
<linearGradient id="paint8_linear" x1="3258.18" y1="1774.78" x2="-129.714" y2="-365.323" gradientUnits="userSpaceOnUse">
<stop stop-color="#63CDD1"/>
<stop offset="1" stop-color="#0C1154"/>
</linearGradient>
</defs>
</svg>
